<svg xmlns="http://www.w3.org/2000/svg" width="1100" height="760" viewBox="0 0 1100 760">
  <rect width="1100" height="760" fill="#f4f8fb"/>
  <circle cx="900" cy="130" r="160" fill="#dff0e9"/>
  <circle cx="170" cy="650" r="180" fill="#e5f1fa"/>
  <g transform="translate(145 130)">
    <rect x="0" y="182" width="250" height="270" rx="18" fill="#c9a46c"/>
    <path d="M62 182c0-74 126-74 126 0" stroke="#8f6d38" stroke-width="18" fill="none" stroke-linecap="round"/>
    <rect x="36" y="245" width="178" height="28" rx="14" fill="#f4e8d4"/>
    <rect x="36" y="298" width="122" height="18" rx="9" fill="#f4e8d4"/>
  </g>
  <g transform="translate(410 90)">
    <path d="M55 0h260l55 55v250H55L0 250V55L55 0Z" fill="#1769aa"/>
    <path d="M55 0h260l55 55H110L55 0Z" fill="#2b8a6b"/>
    <path d="M0 55h110v250H55L0 250V55Z" fill="#105783"/>
    <rect x="145" y="120" width="150" height="26" rx="13" fill="#eaf4fb"/>
    <rect x="145" y="170" width="95" height="18" rx="9" fill="#eaf4fb"/>
  </g>
  <g transform="translate(700 350)">
    <path d="M60 0h240l45 330H15L60 0Z" fill="#f7d8a8"/>
    <path d="M60 0h240l18 132H42L60 0Z" fill="#2b8a6b"/>
    <rect x="80" y="178" width="200" height="28" rx="14" fill="#ffffff"/>
    <rect x="112" y="230" width="136" height="18" rx="9" fill="#ffffff"/>
  </g>
  <g transform="translate(220 520)">
    <path d="M0 55 300 0l40 215L40 270 0 55Z" fill="#f1f5f8"/>
    <path d="M35 88 270 45" stroke="#1769aa" stroke-width="22" stroke-linecap="round"/>
    <path d="M52 160 195 134" stroke="#2b8a6b" stroke-width="16" stroke-linecap="round"/>
  </g>
</svg>
